<?xml version="1.0" encoding="utf-8"?>
<!-- Generator: Adobe Illustrator 22.1.0, SVG Export Plug-In . SVG Version: 6.00 Build 0)  -->
<svg version="1.1" id="Слой_1" xmlns="http://www.w3.org/2000/svg" xmlns:xlink="http://www.w3.org/1999/xlink" x="0px" y="0px"
	 viewBox="0 0 465 28.7" style="enable-background:new 0 0 465 28.7;" xml:space="preserve">
<style type="text/css">
	.st0{fill:#FFFFFF;}
</style>
<g id="XMLID_53_">
	<path class="st0" d="M23.2,0.7h8V28h-8.8V15.5l-4.5,7h-4.7l-4.5-7V28H0V0.7h8l7.6,11.9L23.2,0.7z"/>
	<path class="st0" d="M36.5,14.4c0-4.1,1.3-7.6,3.9-10.3c2.6-2.7,6.2-4,10.9-4s8.3,1.3,10.9,4c2.6,2.7,3.9,6.1,3.9,10.3
		c0,4.1-1.3,7.5-3.9,10.2s-6.2,4.1-10.9,4.1s-8.3-1.4-10.9-4.1S36.5,18.5,36.5,14.4z M56.9,14.4c0-1.9-0.5-3.4-1.4-4.5
		c-1-1.1-2.3-1.6-4.1-1.6s-3.1,0.5-4.1,1.6s-1.5,2.6-1.5,4.5s0.5,3.4,1.5,4.5s2.3,1.6,4.1,1.6s3.1-0.5,4.1-1.6
		C56.4,17.8,56.9,16.3,56.9,14.4z"/>
	<path class="st0" d="M80.5,28h-9V0.7h12.7c3.1,0,5.7,0.6,8,2s3.7,4.1,3.7,7.6c0,3.9-1.6,6.6-4.7,8.2l7,9.5h-9.9l-5.6-8.1h-2.1
		L80.5,28L80.5,28z M80.5,8v5.1h3.4c1.7,0,2.8-1,2.8-2.6s-1.1-2.6-2.8-2.6L80.5,8L80.5,8z"/>
	<path class="st0" d="M105.3,3.4c2.9-2.2,6.4-3.4,10.4-3.4c3.2,0,6.1,0.5,8.8,1.6v8c-1.9-1.2-4.3-1.8-7.2-1.8
		c-4.4,0-7.5,2.1-7.5,6.4c0,5.1,3.8,6.2,5.8,6.2c0.3,0,0.7,0,1.1-0.1v-7.8h8.4v14c-3.1,1.2-6.2,1.8-9.3,1.8c-4.1,0-7.7-1.2-10.6-3.5
		s-4.7-6.1-4.7-10.8C100.6,9.5,102.4,5.7,105.3,3.4z"/>
	<path class="st0" d="M147.2,0.7h9v16.7c0,4.1-1.5,7.1-3.9,8.8c-2.5,1.7-5.3,2.5-8.7,2.5s-6.3-0.7-8.7-2.5c-2.5-1.7-3.9-4.7-3.9-8.8
		V0.7h9V17c0,2.4,1.2,3.6,3.7,3.6s3.7-1.2,3.7-3.6V0.7H147.2z"/>
	<path class="st0" d="M171.3,28h-9V0.7h7.6l9.2,12.8c-0.2-1.3-0.2-2.8-0.2-4.7V0.7h9V28h-7.6l-9.2-12.8c0.2,1.3,0.2,2.8,0.2,4.6V28z
		"/>
</g>
<g id="XMLID_43_">
	<path class="st0" d="M238,0.7h11.9c8.2,0,12.2,3.4,12.2,10.1s-4.1,10.1-12.2,10.1H247V28h-9V0.7L238,0.7z M249.9,8.1h-2.8v5.3h2.8
		c2.3,0,3.4-0.9,3.4-2.7C253.3,9,252.1,8.1,249.9,8.1z"/>
	<path class="st0" d="M271.7,28h-9.1l10.2-27.3h9.7L292.7,28h-9.1l-1.2-3.6H273L271.7,28z M275,17.9h5.3l-1.9-5.8
		c-0.4-1.1-0.6-2.3-0.8-3.5c-0.2,1.1-0.4,2.2-0.7,3.5L275,17.9z"/>
	<path class="st0" d="M306,28h-9V0.7h12.7c3.1,0,5.7,0.6,8,2s3.7,4.1,3.7,7.6c0,3.9-1.6,6.6-4.7,8.2l7,9.5h-9.9l-5.6-8.1h-2.1V28
		H306z M306,8v5.1h3.5c1.7,0,2.8-1,2.8-2.6s-1.1-2.6-2.8-2.6L306,8L306,8z"/>
	<path class="st0" d="M325.4,0.7H349v7.9h-7.3V28h-9V8.6h-7.3L325.4,0.7L325.4,0.7z"/>
	<path class="st0" d="M362.9,28h-9V0.7h7.6l9.2,12.8c-0.2-1.3-0.2-2.8-0.2-4.7V0.7h9V28h-7.6l-9.2-12.8c0.2,1.3,0.2,2.8,0.2,4.6V28z
		"/>
	<path class="st0" d="M386,0.7h20.7v7.1H395V11h10.3v6.6H395v3.2h11.9V28H386V0.7z"/>
	<path class="st0" d="M421.6,28h-9V0.7h12.7c3.1,0,5.7,0.6,8,2s3.7,4.1,3.7,7.6c0,3.9-1.6,6.6-4.7,8.2l7,9.5h-9.9l-5.6-8.1h-2.1V28
		H421.6z M421.6,8v5.1h3.5c1.7,0,2.8-1,2.8-2.6s-1.1-2.6-2.8-2.6L421.6,8L421.6,8z"/>
	<path class="st0" d="M445.4,2.2c2-1.4,4.6-2.1,7.7-2.1c3.9,0,7.2,0.7,10,2.3v7.8c-2.8-1.8-5.8-2.7-9-2.6c-1.6,0-2.4,0.4-2.4,1.2
		c0,2.8,13.3,1.6,13.3,11c0,5.9-3.8,8.9-11.5,8.9c-4.2,0-7.8-0.9-10.8-2.6v-8.2c3.2,2.1,6.6,3.2,9.9,3.2c2.3,0,3.1-0.4,3.1-1.3
		c0-1.5-3.3-1.8-6.6-3.1c-3.3-1.2-6.6-3.4-6.6-8.1C442.4,5.8,443.4,3.7,445.4,2.2z"/>
</g>
<g id="XMLID_12_">
	<path class="st0" d="M218.6,28l-1.2-1.3c-2,1.1-4.2,1.8-6.6,1.8c-5.2,0-9.3-2.6-9.3-8c0-4,2.6-6,5.6-7.5c-0.9-1.8-1.5-3.7-1.5-5.4
		c0-3.6,3.4-6.6,8.5-6.6c4.1,0,8,2.2,8,6c0,4.1-3.1,5.8-6.3,7.2c0.5,0.7,1,1.4,1.5,2l1.4,1.8c0.8-1.3,1.5-2.8,2-4.2l5.6,2.6
		c-1,2.1-2.3,4.2-3.8,6c1.6,1.8,3.3,3.7,5.1,5.6H218.6z M213.7,22.6c-0.8-0.9-1.5-1.8-2-2.4c-0.6-0.8-1.3-1.7-2-2.6
		c-0.5,0.6-0.8,1.4-0.8,2.2c0,1.9,1.3,3.2,2.9,3.2C212.4,23,213,22.9,213.7,22.6z M213.3,10.4c1.6-0.8,2.6-1.6,2.6-3
		c0-0.8-0.7-1.5-1.6-1.5c-1.1,0-1.8,0.8-1.8,1.8C212.5,8.5,212.8,9.4,213.3,10.4z"/>
</g>
</svg>
