<?xml version="1.0" encoding="UTF-8" standalone="no"?>
<svg
   xmlns:dc="http://purl.org/dc/elements/1.1/"
   xmlns:cc="http://creativecommons.org/ns#"
   xmlns:rdf="http://www.w3.org/1999/02/22-rdf-syntax-ns#"
   xmlns:svg="http://www.w3.org/2000/svg"
   xmlns="http://www.w3.org/2000/svg"
   version="1.1"
   id="Capa_1"
   x="0px"
   y="0px"
   width="46.350349"
   height="66.919868"
   viewBox="0 0 46.35035 66.919871"
   xml:space="preserve"><metadata
     id="metadata41"><rdf:RDF><cc:Work
         rdf:about=""><dc:format>image/svg+xml</dc:format><dc:type
           rdf:resource="http://purl.org/dc/dcmitype/StillImage" /><dc:title></dc:title></cc:Work></rdf:RDF></metadata><defs
     id="defs39" /><g
     transform="matrix(0.1263124,0,0,0.13029647,-9.2616041,6.1472784e-6)"
     id="g4"
     style="fill:#d40000"><path
       d="M 263.278,0.107 C 158.977,-3.408 73.323,80.095 73.323,183.602 c 0,117.469 112.73,202.72 175.915,325.322 3.208,6.225 12.169,6.233 15.388,0.009 C 321.786,398.616 419.48,324.642 437.585,218.364 456.331,108.387 374.776,3.866 263.278,0.107 Z m -6.355,279.666 c -53.113,0 -96.171,-43.059 -96.171,-96.171 0,-53.112 43.059,-96.171 96.171,-96.171 53.113,0 96.172,43.059 96.172,96.171 0,53.112 -43.059,96.171 -96.172,96.171 z"
       id="path2"
       style="fill:#d40000" /></g><g
     transform="translate(-73.322999,-446.67699)"
     id="g6" /><g
     transform="translate(-73.322999,-446.67699)"
     id="g8" /><g
     transform="translate(-73.322999,-446.67699)"
     id="g10" /><g
     transform="translate(-73.322999,-446.67699)"
     id="g12" /><g
     transform="translate(-73.322999,-446.67699)"
     id="g14" /><g
     transform="translate(-73.322999,-446.67699)"
     id="g16" /><g
     transform="translate(-73.322999,-446.67699)"
     id="g18" /><g
     transform="translate(-73.322999,-446.67699)"
     id="g20" /><g
     transform="translate(-73.322999,-446.67699)"
     id="g22" /><g
     transform="translate(-73.322999,-446.67699)"
     id="g24" /><g
     transform="translate(-73.322999,-446.67699)"
     id="g26" /><g
     transform="translate(-73.322999,-446.67699)"
     id="g28" /><g
     transform="translate(-73.322999,-446.67699)"
     id="g30" /><g
     transform="translate(-73.322999,-446.67699)"
     id="g32" /><g
     transform="translate(-73.322999,-446.67699)"
     id="g34" /></svg>