<?xml version="1.0" encoding="iso-8859-1"?>
<!-- Generator: Adobe Illustrator 19.0.0, SVG Export Plug-In . SVG Version: 6.00 Build 0)  -->
<svg version="1.1" id="Capa_1" xmlns="http://www.w3.org/2000/svg" xmlns:xlink="http://www.w3.org/1999/xlink" x="0px" y="0px"
	 viewBox="0 0 512.002 512.002" style="enable-background:new 0 0 512.002 512.002;" xml:space="preserve">
<g>
	<g>
		<path d="M477.199,267.257l-35.593-64.429c-0.033-7.827-0.21-31.414-0.573-36.273c-0.009-0.12-0.02-0.24-0.033-0.36l-1.542-13.866
			c-0.013-0.117-0.028-0.233-0.045-0.35c-6.947-47.246-30.586-86.393-68.36-113.21C335.898,13.811,290.065,0.407,238.51,0.006
			C237.968,0.002,237.438,0,236.897,0C125.186,0,33.414,90.369,31.992,202.183c-1.078,84.65,49.93,160.917,127.773,192.491
			l-17.944,84.458c-0.579,2.725,0.005,5.57,1.613,7.846c1.607,2.276,4.092,3.779,6.854,4.145l156.83,20.791
			c0.444,0.059,0.885,0.088,1.322,0.088c4.462,0,8.461-2.989,9.648-7.402l20.662-76.78c1.488,0.138,3.137,0.288,4.918,0.447
			c9.234,0.83,20.89,1.832,29.042,2.527c7.038,0.6,42.238,3.59,44.086,3.59c7.657,0,14.692-2.938,19.808-8.273
			c4.905-5.115,7.468-11.837,7.23-18.95V303.533l17.033-2.898c7.287-1.145,13.574-5.774,16.832-12.396
			C480.97,281.587,480.784,273.744,477.199,267.257z M459.752,279.41c-0.282,0.574-0.858,1.294-2.003,1.469
			c-0.056,0.009-0.111,0.018-0.167,0.027l-25.426,4.327c-4.806,0.818-8.322,4.983-8.322,9.858v112.253
			c0,0.14,0.003,0.28,0.009,0.419c0.092,2.183-0.86,3.654-1.675,4.503c-1.267,1.322-3.097,2.068-5.17,2.114
			c-5.696-0.356-77.167-6.371-83.763-7.199c-1.284-0.252-2.626-0.254-3.953,0.02c-3.698,0.765-6.651,3.547-7.632,7.194
			l-20.597,76.539L163.63,472.716l15.433-72.638l69.06,13.485c0.648,0.127,1.292,0.188,1.927,0.188c4.687,0,8.872-3.313,9.804-8.086
			c1.059-5.42-2.478-10.673-7.898-11.731l-77.932-15.217C100.001,351.992,50.986,281.245,51.99,202.438
			C53.274,101.537,136.08,20,236.898,20c0.482,0,0.973,0.002,1.456,0.005C337.98,20.78,407.412,72.389,419.6,154.715l1.5,13.489
			c0.204,3.086,0.358,15.121,0.442,24.799h-21.446c-5.523,0-10,4.477-10,10s4.477,10,10,10h24.282l35.314,63.925
			C460.253,277.941,460.034,278.837,459.752,279.41z"/>
	</g>
</g>
<g>
	<g>
		<path d="M299.196,409.35c-0.129-0.64-0.32-1.27-0.57-1.87c-0.25-0.61-0.559-1.19-0.92-1.73c-0.37-0.55-0.79-1.06-1.25-1.52
			c-0.46-0.46-0.97-0.88-1.52-1.24c-0.54-0.36-1.12-0.67-1.72-0.92c-0.61-0.25-1.24-0.44-1.87-0.57c-3.26-0.65-6.71,0.41-9.03,2.73
			c-0.461,0.46-0.88,0.97-1.24,1.52c-0.36,0.54-0.67,1.12-0.92,1.73c-0.25,0.6-0.44,1.23-0.57,1.87c-0.13,0.64-0.2,1.3-0.2,1.95
			c0,0.66,0.07,1.31,0.2,1.96c0.13,0.64,0.32,1.26,0.57,1.87c0.25,0.6,0.56,1.18,0.92,1.72c0.36,0.55,0.78,1.06,1.24,1.52
			c1.86,1.87,4.44,2.93,7.07,2.93c0.65,0,1.31-0.06,1.96-0.19c0.63-0.13,1.26-0.32,1.87-0.57c0.6-0.25,1.18-0.56,1.72-0.92
			c0.55-0.37,1.06-0.78,1.52-1.25c0.46-0.46,0.88-0.97,1.25-1.52c0.36-0.539,0.67-1.12,0.92-1.72c0.25-0.61,0.441-1.23,0.57-1.87
			c0.13-0.65,0.19-1.3,0.19-1.96C299.386,410.65,299.326,409.99,299.196,409.35z"/>
	</g>
</g>
<g>
	<g>
		<path d="M219.007,116.604c-37.012,0-67.123,30.111-67.123,67.123c0,37.012,30.111,67.123,67.123,67.123
			s67.123-30.111,67.123-67.123C286.13,146.715,256.019,116.604,219.007,116.604z M219.007,230.85
			c-25.983,0-47.123-21.139-47.123-47.123s21.139-47.123,47.123-47.123s47.123,21.139,47.123,47.123
			C266.13,209.71,244.991,230.85,219.007,230.85z"/>
	</g>
</g>
<g>
	<g>
		<path d="M343.486,150.118l-14.873-5.311c-1.335-3.755-2.868-7.45-4.585-11.055l6.764-14.279c3.966-8.372,2.23-18.397-4.32-24.947
			L308.21,76.263c-6.552-6.55-16.575-8.285-24.947-4.321l-14.28,6.764c-3.605-1.718-7.3-3.25-11.055-4.585l-5.312-14.874
			c-3.116-8.724-11.433-14.585-20.696-14.585h-25.825c-9.263,0-17.58,5.861-20.696,14.585l-5.312,14.873
			c-3.755,1.335-7.45,2.868-11.055,4.585l-14.279-6.764c-8.371-3.966-18.396-2.229-24.948,4.321l-18.26,18.26
			c-6.55,6.55-8.287,16.575-4.322,24.948l6.764,14.28c-1.718,3.605-3.251,7.301-4.585,11.055l-14.873,5.311
			c-8.724,3.116-14.585,11.433-14.585,20.696v25.825c0,9.263,5.861,17.581,14.585,20.696l14.873,5.312
			c1.335,3.755,2.868,7.45,4.585,11.055l-6.764,14.28c-3.965,8.372-2.229,18.396,4.321,24.946l18.261,18.261
			c6.551,6.55,16.576,8.286,24.947,4.321l14.279-6.764c3.604,1.718,7.3,3.25,11.056,4.585l5.312,14.873
			c3.115,8.724,11.432,14.585,20.696,14.585h25.825c9.264,0,17.581-5.861,20.696-14.584l5.312-14.874
			c3.755-1.334,7.451-2.868,11.055-4.585l14.28,6.764c8.372,3.966,18.398,2.228,24.947-4.321l18.261-18.261
			c6.55-6.55,8.286-16.576,4.321-24.947l-6.764-14.28c1.718-3.605,3.25-7.3,4.585-11.055l14.873-5.312
			c8.724-3.115,14.585-11.432,14.585-20.696v-25.825C358.071,161.55,352.21,153.233,343.486,150.118z M338.072,196.639
			L338.072,196.639c-0.001,0.833-0.528,1.581-1.313,1.861l-19.469,6.953c-2.976,1.063-5.274,3.469-6.199,6.491
			c-1.784,5.829-4.146,11.525-7.021,16.929c-1.485,2.792-1.562,6.12-0.209,8.977l8.855,18.694c0.357,0.753,0.2,1.654-0.389,2.243
			l-18.261,18.261c-0.589,0.589-1.49,0.745-2.244,0.389l-18.693-8.855c-2.856-1.354-6.185-1.276-8.978,0.208
			c-5.404,2.875-11.099,5.237-16.928,7.022c-3.021,0.925-5.428,3.223-6.491,6.198l-6.954,19.47c-0.28,0.784-1.028,1.311-1.861,1.311
			h-25.825c-0.833,0-1.581-0.527-1.861-1.312l-6.953-19.469c-1.063-2.976-3.47-5.275-6.491-6.199
			c-5.829-1.784-11.524-4.147-16.928-7.021c-1.466-0.78-3.08-1.172-4.697-1.172c-1.461,0-2.924,0.32-4.281,0.963l-18.693,8.854
			c-0.754,0.357-1.655,0.2-2.244-0.389l-18.261-18.261c-0.589-0.589-0.746-1.49-0.389-2.243l8.854-18.693
			c1.353-2.857,1.276-6.185-0.209-8.977c-2.875-5.405-5.237-11.1-7.021-16.929c-0.924-3.021-3.223-5.428-6.199-6.491l-19.469-6.953
			c-0.784-0.28-1.311-1.028-1.311-1.861v-25.825c0-0.833,0.527-1.581,1.311-1.861L120.723,162c2.976-1.062,5.274-3.47,6.199-6.491
			c1.783-5.826,4.146-11.521,7.021-16.93c1.484-2.791,1.562-6.119,0.208-8.976l-8.854-18.693c-0.357-0.754-0.201-1.655,0.389-2.244
			l18.26-18.261c0.59-0.588,1.491-0.746,2.244-0.388l18.693,8.854c2.856,1.353,6.186,1.276,8.977-0.209
			c5.404-2.875,11.1-5.237,16.929-7.021c3.021-0.924,5.428-3.223,6.491-6.199l6.953-19.469c0.28-0.785,1.028-1.311,1.861-1.311
			h25.825c0.833,0,1.581,0.527,1.861,1.312l6.954,19.469c1.063,2.975,3.469,5.273,6.491,6.198
			c5.828,1.784,11.524,4.146,16.929,7.021c2.793,1.485,6.121,1.563,8.977,0.209l18.694-8.855c0.754-0.356,1.655-0.201,2.243,0.388
			l18.261,18.262c0.589,0.589,0.745,1.49,0.388,2.243l-8.855,18.693c-1.353,2.857-1.276,6.186,0.209,8.977
			c2.875,5.405,5.237,11.101,7.021,16.929c0.925,3.021,3.224,5.429,6.199,6.491l19.469,6.953c0.785,0.28,1.312,1.028,1.312,1.861
			V196.639z"/>
	</g>
</g>
<g>
</g>
<g>
</g>
<g>
</g>
<g>
</g>
<g>
</g>
<g>
</g>
<g>
</g>
<g>
</g>
<g>
</g>
<g>
</g>
<g>
</g>
<g>
</g>
<g>
</g>
<g>
</g>
<g>
</g>
</svg>
